<mxfile host="app.diagrams.net" modified="2024-05-31T08:13:58.613Z" agent="Mozilla/5.0 (Windows NT 10.0; Win64; x64) AppleWebKit/537.36 (KHTML, like Gecko) Chrome/125.0.0.0 Safari/537.36" version="24.4.10" etag="tH_UPrC0m6J9aqJfwcQT" type="github">
  <diagram name="Page-1" id="a3lJTu-IXyHbUOSdx-mn">
    <mxGraphModel>
      <root>
        <mxCell id="0" />
        <mxCell id="1" parent="0" />
      </root>
    </mxGraphModel>
  </diagram>
</mxfile>
